<svg width="19" height="24" viewBox="0 0 19 24" fill="none" xmlns="http://www.w3.org/2000/svg">
<path fill-rule="evenodd" clip-rule="evenodd" d="M6.73604 0.334826C6.71184 0.264335 6.67117 0.199449 6.61604 0.14569C6.52175 0.0536713 6.39342 0.00190357 6.25946 0.00189386L2.17874 0.00159242C1.01411 0.00172837 0.0435853 0.892182 0.0412758 2.01999L4.12384e-06 21.98C-0.00230545 23.1087 0.965809 24.0001 2.13124 24L6.21176 23.9995C6.38297 23.9995 6.54233 23.9151 6.63462 23.7757C6.83645 23.4708 7.01951 23.1592 7.18952 22.87L7.19002 22.8691L7.19042 22.8684C7.2339 22.7944 7.27658 22.7218 7.31845 22.6512C7.52943 22.2955 7.72343 21.9847 7.93441 21.7235C8.33838 21.2232 8.7778 20.932 9.48263 20.9319C10.1841 20.9318 10.6073 21.2198 11.0029 21.7195C11.2106 21.9819 11.4018 22.293 11.6158 22.6519L11.6844 22.767C11.875 23.0878 12.0837 23.4386 12.324 23.7842C12.4173 23.9183 12.5735 23.9988 12.7407 23.9988L16.8214 23.9983C17.986 23.9983 18.9564 23.1078 18.9587 21.98L19 2.01997C19.0023 0.891288 18.0342 -0.000135934 16.8688 1.55481e-08L12.7865 0.000437128C12.6475 0.00045655 12.5147 0.0562446 12.4197 0.154507C12.3741 0.20176 12.3392 0.25681 12.3163 0.316152C12.0795 0.656144 11.8752 0.995125 11.6891 1.30405L11.6426 1.3812C11.4243 1.7429 11.2331 2.05316 11.0263 2.31421C10.8223 2.5718 10.6185 2.76091 10.3887 2.88783C10.1639 3.01193 9.88841 3.09059 9.51737 3.09069C8.80753 3.09079 8.35967 2.8017 7.956 2.30785C7.74522 2.05006 7.55182 1.74141 7.34607 1.38746C7.2823 1.27792 7.21653 1.16227 7.14875 1.04322L7.14855 1.04295C7.01821 0.814021 6.88054 0.572117 6.73604 0.334826ZM11.1429 6.16044C10.8656 6.16044 10.6408 6.37786 10.6408 6.64598C10.6408 6.91419 10.8656 7.13151 11.1429 7.13151H14.4093C14.6866 7.13151 14.9113 6.91419 14.9113 6.64598C14.9113 6.37786 14.6866 6.16044 14.4093 6.16044H11.1429ZM4.61062 7.13229H7.87697C8.15432 7.13229 8.37905 6.91487 8.37905 6.64675C8.37905 6.37854 8.15432 6.16122 7.87697 6.16122H4.61062C4.33327 6.16122 4.10854 6.37854 4.10854 6.64675C4.10854 6.91487 4.33327 7.13229 4.61062 7.13229ZM11.1224 17.863H14.3888C14.6661 17.863 14.8909 17.6456 14.8909 17.3775C14.8909 17.1093 14.6661 16.8919 14.3888 16.8919H11.1224C10.8451 16.8919 10.6203 17.1093 10.6203 17.3775C10.6203 17.6456 10.8451 17.863 11.1224 17.863ZM4.58964 17.8638H7.85608C8.13333 17.8638 8.35816 17.6465 8.35816 17.3783C8.35816 17.1101 8.13333 16.8927 7.85608 16.8927H4.58964C4.31239 16.8927 4.08756 17.1101 4.08756 17.3783C4.08756 17.6465 4.31239 17.8638 4.58964 17.8638Z" fill="url(#paint0_linear_2_3)"/>
<defs>
<linearGradient id="paint0_linear_2_3" x1="9.52259" y1="1.55481e-08" x2="9.52259" y2="24" gradientUnits="userSpaceOnUse">
<stop stop-color="#B727F3"/>
<stop offset="1" stop-color="#DB4CAA"/>
</linearGradient>
</defs>
</svg>
